<svg width="533" height="299" viewBox="0 0 533 299" fill="none" xmlns="http://www.w3.org/2000/svg">
<path d="M320.783 97.6205C320.783 87.0161 319.173 80.6463 315.065 70.8491C310.956 61.0519 304.935 52.1499 297.343 44.6515C289.752 37.1531 280.739 31.205 270.821 27.1468C260.902 23.0887 250.271 21 239.536 21L239.536 31.4227C248.886 31.4227 258.144 33.2418 266.783 36.7761C275.421 40.3104 283.27 45.4908 289.882 52.0214C296.493 58.552 301.738 66.305 305.316 74.8377C308.894 83.3703 311.195 88.3848 311.195 97.6205H320.783Z" fill="white"/>
<path d="M239.536 22.615C228.8 22.615 218.169 24.7037 208.25 28.7619C198.332 32.82 189.319 38.7681 181.728 46.2665C174.137 53.765 168.115 62.6669 164.006 72.4641C159.898 82.2613 157.783 92.7619 157.783 103.366H165.256C165.256 93.7312 167.177 84.1905 170.91 75.2888C174.643 66.3872 180.115 58.2989 187.012 51.4859C193.91 44.6728 202.098 39.2685 211.11 35.5813C220.122 31.8941 229.781 29.9963 239.536 29.9963V22.615Z" fill="white"/>
<path d="M159.418 103.366C159.418 113.971 161.533 124.471 165.641 134.268C169.75 144.066 175.772 152.968 183.363 160.466L186.228 157.636C179.013 150.509 173.29 142.048 169.385 132.737C165.48 123.425 163.47 113.445 163.47 103.366H159.418Z" fill="white"/>
<path d="M183.492 159.751C191.27 167.06 200.429 172.785 210.447 176.598C220.464 180.412 231.144 182.239 241.877 181.975L241.812 179.393C231.423 179.648 221.084 177.88 211.387 174.189C201.689 170.497 192.823 164.955 185.294 157.879L183.492 159.751Z" fill="white"/>
<path d="M300.283 99.8C300.283 91.5009 299.098 87.6797 296.073 80.0123C293.049 72.345 288.616 65.3782 283.027 59.5099C277.438 53.6415 270.803 48.9865 263.501 45.8106C256.199 42.6346 248.373 41 240.469 41L240.469 49.1569C247.353 49.1569 254.169 50.5805 260.528 53.3465C266.888 56.1125 272.666 60.1667 277.534 65.2776C282.401 70.3886 286.262 76.4561 288.896 83.1338C291.531 89.8116 293.283 92.5721 293.283 99.8H300.283Z" fill="white"/>
<path d="M240.469 42.2639C232.565 42.2639 224.739 43.8986 217.437 47.0745C210.135 50.2504 203.5 54.9055 197.911 60.7738C192.322 66.6422 187.889 73.6089 184.865 81.2763C181.84 88.9436 180.283 97.1615 180.283 105.461H185.785C185.785 97.9201 187.199 90.4534 189.947 83.4869C192.695 76.5204 196.723 70.1905 201.801 64.8585C206.879 59.5266 212.908 55.2971 219.542 52.4114C226.177 49.5258 233.288 48.0406 240.469 48.0406V42.2639Z" fill="white"/>
<path d="M181.487 105.461C181.487 113.76 183.044 121.978 186.068 129.645C189.093 137.312 193.526 144.279 199.115 150.147L201.224 147.932C195.913 142.355 191.699 135.733 188.824 128.446C185.95 121.159 184.47 113.348 184.47 105.461H181.487Z" fill="white"/>
<path d="M199.21 149.587C204.936 155.308 211.679 159.788 219.054 162.773C226.429 165.757 234.291 167.187 242.193 166.98L242.145 164.96C234.496 165.16 226.885 163.776 219.746 160.887C212.607 157.998 206.08 153.661 200.537 148.123L199.21 149.587Z" fill="white"/>
<path d="M340.283 100C340.283 86.8678 337.697 73.8642 332.671 61.7317C327.646 49.5991 320.28 38.5752 310.994 29.2893C301.708 20.0035 290.684 12.6375 278.552 7.61205C266.419 2.58658 253.415 -5.74026e-07 240.283 0V12.9071C251.72 12.9071 263.046 15.1598 273.612 19.5367C284.179 23.9135 293.78 30.3287 301.867 38.416C309.955 46.5033 316.37 56.1044 320.747 66.671C325.123 77.2376 327.376 88.5628 327.376 100H340.283Z" fill="white"/>
<path d="M240.283 2C227.151 2 214.147 4.58658 202.015 9.61205C189.882 14.6375 178.858 22.0035 169.573 31.2893C160.287 40.5752 152.921 51.5991 147.895 63.7317C142.87 75.8642 140.283 88.8678 140.283 102H149.424C149.424 90.0682 151.774 78.2532 156.34 67.2297C160.906 56.2061 167.599 46.1899 176.036 37.7528C184.473 29.3158 194.489 22.6231 205.513 18.057C216.536 13.4909 228.351 11.1408 240.283 11.1408V2Z" fill="white"/>
<path d="M142.283 102C142.283 115.132 144.87 128.136 149.895 140.268C154.921 152.401 162.287 163.425 171.573 172.711L175.077 169.206C166.252 160.38 159.251 149.903 154.475 138.372C149.698 126.84 147.24 114.481 147.24 102H142.283Z" fill="white"/>
<path d="M171.73 171.825C181.244 180.877 192.448 187.966 204.701 192.689C216.955 197.411 230.019 199.673 243.147 199.347L243.068 196.149C230.359 196.465 217.713 194.275 205.852 189.704C193.99 185.133 183.144 178.27 173.935 169.507L171.73 171.825Z" fill="white"/>
<path d="M141.66 262L131.978 229.664H140.344L147.018 253.352H147.347L153.974 229.664H162.152L152.47 262H141.66Z" fill="white"/>
<path d="M171.18 262V229.664H193.834V235.962H179.358V242.589H191.625V248.793H179.358V255.702H193.834V262H171.18Z" fill="white"/>
<path d="M204.853 262V229.664H213.031V255.42H225.627V262H204.853Z" fill="white"/>
<path d="M236.884 262V236.244H228.048V229.664H253.945V236.244H245.062V262H236.884Z" fill="white"/>
<path d="M263.294 262V229.664H279.321C281.42 229.664 283.112 229.899 284.397 230.369C285.713 230.808 286.7 231.481 287.358 232.39C288.047 233.267 288.502 234.364 288.721 235.68C288.972 236.965 289.097 238.437 289.097 240.098C289.097 241.32 289.003 242.558 288.815 243.811C288.627 245.033 288.22 246.161 287.593 247.195C286.998 248.198 286.073 248.965 284.82 249.498L289.708 262H281.201L276.642 249.075L278.71 250.203C278.428 250.36 278.13 250.454 277.817 250.485C277.535 250.516 277.175 250.532 276.736 250.532H271.472V262H263.294ZM271.472 244.469H276.172C277.237 244.469 278.083 244.422 278.71 244.328C279.368 244.203 279.854 243.983 280.167 243.67C280.48 243.357 280.684 242.918 280.778 242.354C280.872 241.79 280.919 241.069 280.919 240.192C280.919 239.283 280.872 238.547 280.778 237.983C280.715 237.419 280.527 236.996 280.214 236.714C279.932 236.401 279.462 236.181 278.804 236.056C278.177 235.931 277.3 235.868 276.172 235.868H271.472V244.469Z" fill="white"/>
<path d="M300.042 262V229.664H308.22V262H300.042Z" fill="white"/>
<path d="M317.403 262L327.837 245.785L317.591 229.664H326.897L332.866 239.487H333.289L339.352 229.664H348.282L338.036 245.597L348.423 262H339.164L333.007 251.895H332.537L326.333 262H317.403Z" fill="white"/>
<path d="M0 298V275.296H7.194C9.064 275.296 10.593 275.384 11.781 275.56C12.969 275.736 13.904 276.055 14.586 276.517C15.29 276.979 15.807 277.639 16.137 278.497C16.467 279.355 16.676 280.444 16.764 281.764C16.852 283.084 16.896 284.712 16.896 286.648C16.896 288.584 16.852 290.212 16.764 291.532C16.676 292.852 16.467 293.941 16.137 294.799C15.807 295.657 15.29 296.317 14.586 296.779C13.904 297.241 12.969 297.56 11.781 297.736C10.593 297.912 9.064 298 7.194 298H0ZM2.838 295.558H6.732C8.118 295.558 9.262 295.525 10.164 295.459C11.066 295.393 11.781 295.228 12.309 294.964C12.837 294.678 13.222 294.227 13.464 293.611C13.706 292.973 13.86 292.093 13.926 290.971C14.014 289.849 14.058 288.408 14.058 286.648C14.058 284.888 14.014 283.458 13.926 282.358C13.86 281.236 13.695 280.356 13.431 279.718C13.189 279.08 12.804 278.629 12.276 278.365C11.748 278.079 11.033 277.903 10.131 277.837C9.251 277.771 8.118 277.738 6.732 277.738H2.838V295.558Z" fill="white"/>
<path d="M36.282 298V275.296H51.033V277.738H39.12V285.295H49.482V287.77H39.12V295.558H51.033V298H36.282Z" fill="white"/>
<path d="M77.2527 298.264C76.4387 298.264 75.5477 298.242 74.5797 298.198C73.6117 298.154 72.6657 298.099 71.7417 298.033C70.8397 297.967 70.0147 297.89 69.2667 297.802V295.393C70.0587 295.459 70.8837 295.525 71.7417 295.591C72.6217 295.657 73.4687 295.712 74.2827 295.756C75.1187 295.8 75.8227 295.822 76.3947 295.822C77.5607 295.822 78.4957 295.778 79.1997 295.69C79.9037 295.58 80.4977 295.382 80.9817 295.096C81.3117 294.898 81.5537 294.634 81.7077 294.304C81.8617 293.974 81.9497 293.589 81.9717 293.149C82.0157 292.709 82.0377 292.236 82.0377 291.73C82.0377 290.982 82.0157 290.377 81.9717 289.915C81.9277 289.453 81.8067 289.101 81.6087 288.859C81.4327 288.595 81.1357 288.408 80.7177 288.298C80.2997 288.166 79.7387 288.067 79.0347 288.001L73.3917 287.374C72.3357 287.242 71.4887 287.022 70.8507 286.714C70.2127 286.384 69.7287 285.977 69.3987 285.493C69.0907 284.987 68.8817 284.393 68.7717 283.711C68.6617 283.007 68.6067 282.226 68.6067 281.368C68.6067 279.982 68.7827 278.871 69.1347 278.035C69.5087 277.199 70.0477 276.561 70.7517 276.121C71.4557 275.681 72.3027 275.395 73.2927 275.263C74.3047 275.109 75.4597 275.032 76.7577 275.032C77.5937 275.032 78.4517 275.054 79.3317 275.098C80.2117 275.142 81.0367 275.208 81.8067 275.296C82.5987 275.362 83.2477 275.45 83.7537 275.56V277.903C83.1817 277.815 82.5217 277.738 81.7737 277.672C81.0257 277.606 80.2557 277.562 79.4637 277.54C78.6937 277.496 77.9567 277.474 77.2527 277.474C76.0427 277.474 75.0637 277.529 74.3157 277.639C73.5677 277.749 72.9737 277.947 72.5337 278.233C72.0497 278.519 71.7417 278.926 71.6097 279.454C71.4997 279.96 71.4447 280.576 71.4447 281.302C71.4447 282.16 71.4997 282.831 71.6097 283.315C71.7417 283.777 72.0057 284.107 72.4017 284.305C72.8197 284.481 73.4357 284.613 74.2497 284.701L79.7607 285.328C80.5527 285.394 81.2457 285.504 81.8397 285.658C82.4557 285.79 82.9837 286.021 83.4237 286.351C83.8637 286.681 84.1937 287.154 84.4137 287.77C84.5457 288.078 84.6447 288.419 84.7107 288.793C84.7767 289.167 84.8207 289.585 84.8427 290.047C84.8867 290.487 84.9087 290.982 84.9087 291.532C84.9087 292.786 84.7877 293.831 84.5457 294.667C84.3037 295.481 83.9627 296.13 83.5227 296.614C83.0827 297.098 82.5437 297.461 81.9057 297.703C81.2677 297.945 80.5527 298.099 79.7607 298.165C78.9907 298.231 78.1547 298.264 77.2527 298.264Z" fill="white"/>
<path d="M103.947 298V275.296H106.785V298H103.947Z" fill="white"/>
<path d="M135.764 298.264C134.158 298.264 132.794 298.176 131.672 298C130.55 297.802 129.626 297.461 128.9 296.977C128.196 296.493 127.635 295.822 127.217 294.964C126.821 294.084 126.535 292.973 126.359 291.631C126.205 290.267 126.128 288.606 126.128 286.648C126.128 284.69 126.205 283.04 126.359 281.698C126.535 280.334 126.832 279.223 127.25 278.365C127.668 277.485 128.24 276.803 128.966 276.319C129.692 275.835 130.605 275.505 131.705 275.329C132.827 275.131 134.18 275.032 135.764 275.032C136.512 275.032 137.315 275.065 138.173 275.131C139.031 275.197 139.867 275.274 140.681 275.362C141.517 275.45 142.265 275.56 142.925 275.692V278.002C142.221 277.892 141.506 277.804 140.78 277.738C140.054 277.65 139.372 277.584 138.734 277.54C138.118 277.496 137.59 277.474 137.15 277.474C135.786 277.474 134.62 277.507 133.652 277.573C132.706 277.639 131.925 277.815 131.309 278.101C130.693 278.387 130.22 278.86 129.89 279.52C129.56 280.158 129.318 281.049 129.164 282.193C129.032 283.337 128.966 284.822 128.966 286.648C128.966 288.254 129.01 289.607 129.098 290.707C129.186 291.785 129.362 292.665 129.626 293.347C129.912 294.029 130.297 294.557 130.781 294.931C131.287 295.305 131.947 295.558 132.761 295.69C133.597 295.8 134.62 295.855 135.83 295.855C136.292 295.855 136.798 295.844 137.348 295.822C137.898 295.8 138.437 295.767 138.965 295.723C139.493 295.679 139.933 295.635 140.285 295.591V288.199H135.137V285.79H143.024V297.604C142.298 297.736 141.495 297.857 140.615 297.967C139.757 298.055 138.899 298.121 138.041 298.165C137.205 298.231 136.446 298.264 135.764 298.264Z" fill="white"/>
<path d="M162.751 298V275.296H165.655L177.436 292.687H177.568V275.296H180.307V298H177.568L165.622 280.279H165.49V298H162.751Z" fill="white"/>
<path d="M225.021 284.98L228.534 282.483C229.211 282.021 229.732 281.559 230.097 281.097C230.473 280.625 230.661 279.98 230.661 279.164C230.661 278.53 230.414 277.955 229.92 277.439C229.426 276.913 228.727 276.65 227.825 276.65C227.202 276.65 226.676 276.795 226.246 277.085C225.816 277.375 225.494 277.762 225.279 278.245C225.064 278.718 224.957 279.239 224.957 279.808C224.957 280.292 225.075 280.791 225.311 281.307C225.548 281.822 225.875 282.359 226.294 282.918C226.713 283.477 227.191 284.067 227.728 284.69L238.83 298H235.253L226.149 287.107C225.344 286.162 224.624 285.297 223.99 284.513C223.356 283.718 222.857 282.95 222.492 282.209C222.137 281.468 221.96 280.7 221.96 279.905C221.96 278.68 222.201 277.649 222.685 276.811C223.179 275.962 223.867 275.318 224.747 274.877C225.628 274.437 226.66 274.217 227.841 274.217C228.991 274.217 229.979 274.448 230.806 274.91C231.644 275.361 232.288 275.962 232.74 276.714C233.191 277.456 233.416 278.272 233.416 279.164C233.416 279.916 233.282 280.592 233.014 281.194C232.745 281.785 232.369 282.327 231.886 282.821C231.413 283.315 230.86 283.799 230.226 284.271L225.569 287.736C224.796 288.305 224.232 288.848 223.877 289.363C223.523 289.879 223.292 290.335 223.184 290.733C223.088 291.13 223.039 291.447 223.039 291.684C223.039 292.446 223.206 293.145 223.539 293.778C223.872 294.412 224.377 294.922 225.054 295.309C225.741 295.685 226.6 295.873 227.632 295.873C228.534 295.873 229.41 295.669 230.258 295.261C231.118 294.842 231.886 294.251 232.562 293.488C233.239 292.715 233.776 291.796 234.174 290.733C234.582 289.659 234.786 288.472 234.786 287.172H237.461C237.461 288.235 237.359 289.24 237.155 290.185C236.951 291.13 236.634 292.011 236.204 292.828C235.785 293.633 235.248 294.369 234.593 295.035C234.496 295.132 234.421 295.245 234.367 295.374C234.313 295.502 234.238 295.615 234.141 295.712C233.336 296.582 232.342 297.237 231.16 297.678C229.99 298.107 228.813 298.322 227.632 298.322C226.074 298.322 224.726 298.038 223.587 297.468C222.459 296.899 221.589 296.115 220.977 295.116C220.365 294.117 220.058 292.973 220.058 291.684C220.058 290.695 220.268 289.825 220.687 289.073C221.117 288.321 221.702 287.618 222.443 286.962C223.195 286.307 224.055 285.646 225.021 284.98Z" fill="white"/>
<path d="M277.07 298V275.296H291.821V277.738H279.908V285.295H290.27V287.77H279.908V295.558H291.821V298H277.07Z" fill="white"/>
<path d="M310.484 298V275.296H313.322V295.492H323.915V298H310.484Z" fill="white"/>
<path d="M341.77 298V275.296H356.521V277.738H344.608V285.295H354.97V287.77H344.608V295.558H356.521V298H341.77Z" fill="white"/>
<path d="M384.028 298.264C382.422 298.264 381.058 298.176 379.936 298C378.814 297.802 377.89 297.461 377.164 296.977C376.46 296.493 375.899 295.822 375.481 294.964C375.085 294.084 374.799 292.973 374.623 291.631C374.469 290.267 374.392 288.606 374.392 286.648C374.392 284.69 374.469 283.04 374.623 281.698C374.799 280.334 375.096 279.223 375.514 278.365C375.932 277.485 376.504 276.803 377.23 276.319C377.956 275.835 378.869 275.505 379.969 275.329C381.091 275.131 382.444 275.032 384.028 275.032C384.776 275.032 385.579 275.065 386.437 275.131C387.295 275.197 388.131 275.274 388.945 275.362C389.781 275.45 390.529 275.56 391.189 275.692V278.002C390.485 277.892 389.77 277.804 389.044 277.738C388.318 277.65 387.636 277.584 386.998 277.54C386.382 277.496 385.854 277.474 385.414 277.474C384.05 277.474 382.884 277.507 381.916 277.573C380.97 277.639 380.189 277.815 379.573 278.101C378.957 278.387 378.484 278.86 378.154 279.52C377.824 280.158 377.582 281.049 377.428 282.193C377.296 283.337 377.23 284.822 377.23 286.648C377.23 288.254 377.274 289.607 377.362 290.707C377.45 291.785 377.626 292.665 377.89 293.347C378.176 294.029 378.561 294.557 379.045 294.931C379.551 295.305 380.211 295.558 381.025 295.69C381.861 295.8 382.884 295.855 384.094 295.855C384.556 295.855 385.062 295.844 385.612 295.822C386.162 295.8 386.701 295.767 387.229 295.723C387.757 295.679 388.197 295.635 388.549 295.591V288.199H383.401V285.79H391.288V297.604C390.562 297.736 389.759 297.857 388.879 297.967C388.021 298.055 387.163 298.121 386.305 298.165C385.469 298.231 384.71 298.264 384.028 298.264Z" fill="white"/>
<path d="M408.639 298L417.219 275.296H420.783L429.33 298H426.393L424.05 291.796H413.853L411.51 298H408.639ZM414.711 289.321H423.192L419.034 278.2H418.869L414.711 289.321Z" fill="white"/>
<path d="M447.104 298V275.296H450.008L461.789 292.687H461.921V275.296H464.66V298H461.921L449.975 280.279H449.843V298H447.104Z" fill="white"/>
<path d="M493.12 298.264C491.536 298.264 490.205 298.176 489.127 298C488.049 297.802 487.169 297.472 486.487 297.01C485.805 296.526 485.277 295.855 484.903 294.997C484.551 294.117 484.309 292.995 484.177 291.631C484.045 290.267 483.979 288.606 483.979 286.648C483.979 284.69 484.045 283.04 484.177 281.698C484.309 280.334 484.551 279.223 484.903 278.365C485.277 277.485 485.805 276.803 486.487 276.319C487.169 275.835 488.049 275.505 489.127 275.329C490.205 275.131 491.536 275.032 493.12 275.032C493.736 275.032 494.363 275.054 495.001 275.098C495.661 275.142 496.288 275.197 496.882 275.263C497.476 275.329 497.993 275.417 498.433 275.527V277.804C497.927 277.738 497.399 277.683 496.849 277.639C496.321 277.573 495.793 277.529 495.265 277.507C494.737 277.485 494.264 277.474 493.846 277.474C492.57 277.474 491.503 277.529 490.645 277.639C489.787 277.749 489.105 277.969 488.599 278.299C488.093 278.607 487.708 279.102 487.444 279.784C487.202 280.444 487.037 281.335 486.949 282.457C486.861 283.557 486.817 284.954 486.817 286.648C486.817 288.342 486.861 289.75 486.949 290.872C487.037 291.972 487.202 292.863 487.444 293.545C487.708 294.205 488.093 294.7 488.599 295.03C489.105 295.338 489.787 295.547 490.645 295.657C491.503 295.767 492.57 295.822 493.846 295.822C494.594 295.822 495.408 295.789 496.288 295.723C497.168 295.657 497.927 295.58 498.565 295.492V297.835C498.103 297.923 497.553 297.989 496.915 298.033C496.299 298.099 495.661 298.154 495.001 298.198C494.341 298.242 493.714 298.264 493.12 298.264Z" fill="white"/>
<path d="M517.283 298V275.296H532.034V277.738H520.121V285.295H530.483V287.77H520.121V295.558H532.034V298H517.283Z" fill="white"/>
</svg>
